<?xml version="1.0" encoding="UTF-8"?>
<svg id="Capa_2" xmlns="http://www.w3.org/2000/svg" viewBox="0 0 297.33 89.03">
  <path d="M54.1,47.09c1.16.6,2.25,1.08,3.24,1.7,5.27,3.3,8.03,8.18,8.61,14.27.37,3.85.11,7.69-1.13,11.4-2.3,6.9-7.31,10.88-14.07,12.92-3.78,1.14-7.67,1.59-11.6,1.59-12.36,0-24.71,0-37.07,0C.33,88.98,0,88.64,0,86.87,0,62.43,0,37.98,0,13.53c0-1.94.35-2.29,2.26-2.29,12.57,0,25.15-.04,37.72.02,5.97.03,11.52,1.51,16.11,5.56,5.21,4.6,7.01,10.53,6.3,17.27-.51,4.86-2.56,8.96-6.62,11.9-.52.37-1.06.7-1.67,1.1ZM27.22,54.26c0-.07,0-.13,0-.2-4.03,0-8.07,0-12.1,0-1.85,0-2.34.48-2.34,2.3,0,6.36,0,12.71,0,19.07,0,1.95.43,2.39,2.35,2.39,7.63,0,15.26.05,22.89-.03,2.13-.02,4.28-.24,6.38-.62,3.94-.72,7.1-2.56,8.33-6.7.71-2.37.7-4.81.38-7.23-.5-3.82-2.53-6.55-6.22-7.79-1.77-.59-3.66-1.06-5.51-1.13-4.71-.16-9.44-.05-14.16-.05ZM27.11,42.85h0c2.03,0,4.07.03,6.1-.01,2.61-.06,5.24.03,7.82-.31,3.68-.49,6.68-2.16,8.08-5.9.68-1.81.77-3.7.54-5.58-.44-3.67-2.36-6.32-5.91-7.49-1.8-.59-3.74-1.02-5.62-1.05-7.77-.12-15.54-.07-23.31-.07-1.49,0-2,.54-2.01,2.05,0,5.44,0,10.89,0,16.33,0,1.53.47,2.02,2,2.02,4.1,0,8.21,0,12.31,0Z"/>
  <path d="M132.94,46.98c1.79,1.15,3.66,2.13,5.27,3.44,3.98,3.25,5.96,7.62,6.42,12.66.42,4.64,0,9.22-1.98,13.53-2.63,5.76-7.35,9.01-13.24,10.78-3.82,1.15-7.74,1.59-11.71,1.59-12.28,0-24.56,0-36.85,0-1.92,0-2.19-.27-2.2-2.22,0-24.41,0-48.82,0-73.22,0-1.94.35-2.29,2.28-2.29,12.61,0,25.22-.05,37.83.02,6.05.03,11.65,1.59,16.24,5.77,7.55,6.87,8.41,19.34,1.85,26.77-.92,1.04-2.15,1.82-3.24,2.72-.24.19-.51.35-.67.46ZM105.78,54.26c0-.07,0-.13,0-.2-4,0-7.99,0-11.99,0-1.86,0-2.35.46-2.35,2.29,0,6.39,0,12.78,0,19.17,0,1.85.46,2.3,2.33,2.3,7.63,0,15.26.04,22.89-.03,2.09-.02,4.21-.24,6.27-.6,5.04-.88,8.03-3.52,8.68-7.88.31-2.12.29-4.35.03-6.48-.43-3.57-2.47-6.12-5.89-7.28-1.87-.63-3.86-1.16-5.81-1.23-4.71-.18-9.44-.06-14.16-.06ZM105.62,42.84c1.74,0,3.49,0,5.23,0,1.74,0,3.49.04,5.23-.01,1.23-.03,2.47-.1,3.68-.29,5.03-.77,7.97-3.56,8.56-8.41.6-4.94-1.25-9.32-6.77-10.9-1.55-.44-3.2-.72-4.81-.74-7.73-.08-15.47-.05-23.2-.05-1.53,0-2.03.5-2.03,2,0,5.44,0,10.89,0,16.33,0,1.67.38,2.07,2.03,2.07,4.03,0,8.06,0,12.09,0Z"/>
  <path d="M221.23,77.75c-1.89,0-3.78,0-5.67,0-1.57,0-1.99-.69-1.27-2.04,13.24-24.76,26.47-49.52,39.73-74.26.31-.57.89-1.17,1.48-1.37.86-.29,1.33.46,1.71,1.17,3.79,7.11,7.58,14.21,11.37,21.31,9.44,17.66,18.87,35.32,28.31,52.97.84,1.58.47,2.22-1.31,2.22-3.67,0-7.34-.02-11.01.02-1.12.01-1.78-.4-2.31-1.41-8.3-15.84-16.63-31.66-24.95-47.49-.37-.7-.74-1.37-1.64-1.39-.97-.02-1.34.69-1.73,1.42-8.28,15.77-16.58,31.52-24.83,47.3-.58,1.11-1.27,1.63-2.54,1.57-1.78-.09-3.56-.02-5.34-.02Z"/>
  <path d="M153.03,11.24c1.78,0,3.56.04,5.34-.02,1.09-.04,1.73.38,2.24,1.34,5.97,11.41,11.96,22.8,17.95,34.19,2.35,4.46,4.71,8.92,7.05,13.38.37.7.74,1.36,1.65,1.37.92.01,1.3-.66,1.67-1.35,6.85-13.03,13.7-26.06,20.55-39.09,1.5-2.86,3.02-5.7,4.49-8.58.45-.89,1.08-1.26,2.07-1.25,3.71.03,7.41.01,11.12.01,1.82,0,2.21.67,1.35,2.28-5.75,10.74-11.49,21.49-17.24,32.23-7.43,13.91-14.86,27.83-22.3,41.74-.25.47-.55.98-.96,1.28-.77.56-1.65.15-2.25-.97-3.34-6.23-6.67-12.47-10.01-18.71-9.81-18.36-19.62-36.71-29.43-55.07-.17-.32-.35-.64-.5-.97-.5-1.1-.09-1.79,1.12-1.82,2.03-.04,4.07-.01,6.1-.01Z"/>
</svg>