<?xml version="1.0" encoding="UTF-8"?>
<svg id="Capa_3" xmlns="http://www.w3.org/2000/svg" viewBox="0 0 207.13 190">
  <path d="M131.05,101.76c-3.8,0-7.55-.39-11.3-1.05-7.57-1.32-14.55-4.12-21.16-7.98-5.74-3.35-10.83-7.49-15.34-12.36-.78-.84-1.63-1.65-2-2.85-.53-1.73-.09-3.3.61-4.81,1.68-3.64,4.31-6.41,7.97-8.1,2.4-1.11,4.79-1.25,7.16.22.75.47,1.15,1.15,1.52,1.85,2.54,4.73,5.64,9.05,9.4,12.88,2.53,2.58,5.33,4.83,8.42,6.76,4.67,2.92,9.65,5.02,15.03,6.13,2.4.5,4.85.72,7.31.93,3.84.34,7.59-.06,11.26-.96,9.05-2.23,15.51-7.65,19.32-16.19,2.01-4.51,2.61-9.25,2.36-14.11-.12-2.31-.44-4.6-1-6.86-.1-.39-.34-.98.25-1.14.65-.18.62.51.75.87,1.14,3.21,1.65,6.52,1.86,9.93.31,4.94-.61,9.67-2.17,14.27-1.04,3.04-2.97,5.65-5.06,8.11-2.93,3.43-6.43,6.16-10.28,8.43-3.44,2.03-7.14,3.49-11.04,4.43-3.05.73-6.12,1.17-9.25,1.39-1.55.11-3.09.11-4.64.18Z"/>
  <path d="M76.12,35.9c5.75-.17,11.37.73,16.89,2.26,5.23,1.45,10.16,3.63,14.88,6.34,5.96,3.42,11.14,7.75,15.94,12.65,3.12,3.19,2.46,5.82.88,8.89-1.39,2.7-3.51,4.85-6.15,6.32-2.38,1.33-4.94,2.13-7.69.83-.92-.44-1.53-1.08-2.02-1.93-2.12-3.63-4.27-7.23-7.07-10.39-3.21-3.62-6.73-6.86-10.83-9.48-5.12-3.28-10.67-5.44-16.61-6.53-3.21-.59-6.49-.92-9.78-.74-5.47.29-10.72,1.45-15.46,4.3-4.15,2.49-7.37,5.92-9.83,10.1-1.72,2.94-2.77,6.11-3.4,9.4-.57,2.97-.51,6.01-.19,9.03.19,1.72.33,3.44.84,5.1.11.37.21.81-.23.96-.47.16-.68-.22-.84-.64-.93-2.38-1.42-4.86-1.69-7.39-.61-5.62.25-11.07,2.01-16.4.87-2.62,2.42-4.87,4.09-7.04,2.57-3.34,5.71-6.07,9.21-8.35,4.06-2.65,8.44-4.61,13.19-5.76,4.57-1.11,9.2-1.58,13.89-1.51Z"/>
  <path d="M166.79,25.33c.03,5.31-3.97,10.48-9.15,11.8-2.18.55-4.32.25-6.36-.61-1.15-.48-1.4-1.77-2.01-2.7-2.52-3.81-5.08-7.58-8.22-10.93-5.21-5.56-11.33-9.72-18.57-12.12-5.88-1.95-11.92-3.05-18.14-2.56-3.98.31-7.79,1.35-11.41,3.12-2.47,1.21-4.7,2.7-6.82,4.41-1.09.88-2.55.88-3.9.83-.72-.03-1-.99-.54-1.65,1.61-2.33,3.62-4.29,5.86-5.98,4.07-3.08,8.66-5.19,13.52-6.62,3.8-1.12,7.71-1.81,11.68-2.15,5.48-.46,10.86.09,16.24,1.06,5.1.92,9.99,2.5,14.68,4.64,5.75,2.62,11.06,5.96,15.83,10.16,2.05,1.8,4.04,3.65,5.87,5.68,1.35,1.49,1.44,1.61,1.45,3.63Z"/>
  <path d="M90.24,137.68c-5.06-.23-10.48-.78-15.83-2.12-5.87-1.46-11.38-3.76-16.6-6.74-4.32-2.46-8.29-5.42-11.96-8.81-1.6-1.47-3.01-3.1-4.54-4.63-1.34-1.34-1.12-3.13-.86-4.72.71-4.36,3.15-7.56,7.12-9.5,2.66-1.29,5.42-1.18,8.14-.09.93.37,1.27,1.31,1.75,2.07,2.15,3.39,4.41,6.68,6.99,9.77,3.3,3.94,7.12,7.23,11.46,9.91,4.42,2.72,9.26,4.35,14.3,5.58,4.4,1.08,8.84,1.38,13.27.98,4.79-.43,9.3-2.07,13.47-4.54,1.42-.84,2.71-1.88,3.99-2.93,1.19-.97,2.76-.94,4.21-1.01.8-.04.99.95.34,1.81-.99,1.32-2.05,2.6-3.28,3.73-5.31,4.88-11.63,7.82-18.57,9.51-3.17.78-6.39,1.33-9.67,1.53-1.1.07-2.2.15-3.73.19Z"/>
  <path d="M73.02,82.23c2.27-.11,3.89.78,5.05,2.82,2.73,4.77,5.87,9.26,9.83,13.11,5.2,5.06,11.17,8.85,18.16,10.98,3.75,1.14,7.55,1.83,11.45,2.19,3.67.34,7.3.19,10.87-.54,4.79-.98,9.24-2.84,12.74-6.4,1.14-1.16,2.53-1.07,3.86-1.25.83-.11,1.2,1,.7,1.84-.81,1.34-1.96,2.41-3.09,3.45-2.82,2.61-6,4.75-9.5,6.37-4.54,2.11-9.28,3.53-14.23,4.22-2.73.38-5.49.7-8.24.62-3.67-.1-7.33-.45-10.96-1.09-5.65-1-11.07-2.72-16.24-5.19-3.18-1.52-6.23-3.28-9.16-5.26-4.03-2.72-7.66-5.85-11.02-9.34-.54-.56-1.05-1.14-1.58-1.7-.76-.79-.62-1.88-.57-2.73.29-4.72,2.65-8.24,6.71-10.61,2.08-1.22,3.19-1.5,5.22-1.5Z"/>
  <path d="M146,43.49c-.13,4.23-2.43,7.42-5.86,9.9-1.95,1.41-4.14,2.19-6.62,2.03-1.73-.11-3.15-.75-4.08-2.24-1.84-2.95-3.59-5.96-5.79-8.68-3.21-3.96-6.74-7.56-11.01-10.43-3.04-2.05-6.25-3.73-9.67-4.99-3.45-1.27-7.05-2.02-10.7-2.53-2.61-.37-5.21-.49-7.82-.39-6.32.24-12.17,1.92-17.23,5.87-.15.11-.31.23-.41.37-1.1,1.68-2.88,1.87-4.63,2.14-.44.07-.83-.03-1.05-.44-.23-.42-.18-.83.11-1.24,1.14-1.65,2.52-3.09,4.03-4.37,3.12-2.66,6.57-4.82,10.35-6.44,4.09-1.74,8.35-2.81,12.74-3.47,2.52-.38,5.05-.63,7.57-.61,8.59.08,16.87,1.74,24.83,5.01,6.21,2.55,11.86,6.02,17.07,10.22,2.72,2.19,5.21,4.63,7.52,7.27.8.91.44,1.87.64,3.03Z"/>
  <path d="M189.25,190c-2.81,0-5.62,0-8.42,0-1.52,0-3.02-.26-4.43-.78-1.63-.6-2.82-1.74-3.3-3.47-.41-1.5-.54-3.03-.54-4.59,0-.67.28-.92.93-.92,2.25.02,4.51,0,6.76,0,.42,0,.79.03.93.56.66,2.42.82,2.67,3.2,2.73,3.77.1,7.54.17,11.3-.03,2.14-.11,2.65-.66,2.62-2.61-.02-1.01-.42-1.59-1.4-1.82-.82-.19-1.64-.42-2.5-.39-4.39.12-8.78-.11-13.17-.27-2.21-.08-4.47-.31-6.41-1.67-.98-.69-1.56-1.6-1.78-2.7-.6-3.06-.64-6.13.19-9.16.52-1.9,3.21-3.63,5.59-3.95,6.14-.81,12.31-.29,18.46-.38,1.45-.02,2.91.32,4.33.74,2.93.87,4.31,3.18,4.4,6.52.06,2.24.03,2.24-2.17,2.24-1.81,0-3.62,0-5.43,0-.51,0-.93-.03-1.03-.71-.22-1.49-.8-2.13-2.25-2.16-3.92-.06-7.83-.08-11.75,0-1.63.04-2.35,1.02-2.2,2.54.12,1.18.97,1.74,2.57,1.87,4.05.32,8.11.14,12.17.21,2.28.04,4.55.19,6.76.84,2.4.7,3.99,2.71,4.24,5.17.25,2.47.3,4.92-.23,7.35-.48,2.19-1.91,3.54-4.03,4.1-1.78.47-3.6.72-5.46.71-2.66,0-5.32,0-7.98,0Z"/>
  <path d="M66.74,178.52c2.35.72,3.72,2.54,3.79,4.93.05,1.81,0,3.62.03,5.43.01.66-.18.92-.88.91-2.22-.03-4.44-.04-6.65,0-.76.01-.92-.28-.93-.98-.02-1.36.18-2.73-.15-4.08-.45-1.86-1.09-2.46-2.97-2.48-4.14-.04-8.28,0-12.42-.03-.7,0-.89.26-.88.91.03,1.88,0,3.77.02,5.65.01.68-.13,1.01-.91,1-2.29-.04-4.58-.04-6.87,0-.7.01-.87-.26-.87-.91.02-8.91.02-17.81,0-26.72,0-.88.3-1.23,1.24-1.23,8.5.03,17,0,25.5.03,3.85.01,6.4,2.57,6.78,6.43.21,2.11.23,4.19-.06,6.27-.26,1.86-.94,3.5-2.92,4.2-.17.06-.31.19-.46.3-.11.08-.2.18-.4.36ZM52.93,175.13c2.1,0,4.21.02,6.31,0,2.2-.03,3.09-.61,3.25-2.48.28-3.37-.26-4.41-2.96-4.53-4.38-.19-8.78-.05-13.18-.06-.67,0-.85.25-.76.97.21,1.68.21,3.4,0,5.07-.11.89.17,1.04.9,1.04,2.14-.01,4.28,0,6.42,0Z"/>
  <path d="M.02,175.37c0-4.43.02-8.86-.02-13.29,0-.84.19-1.15,1.1-1.15,7.76.04,15.51-.01,23.27.05,2.42.02,4.65.79,6.35,2.64,1.1,1.2,1.59,2.7,1.81,4.29.51,3.68.68,7.36-.96,10.82-1.18,2.49-3.31,3.7-6.03,3.72-5.24.04-10.49.04-15.73,0-1.07,0-1.43.31-1.38,1.38.08,1.66-.02,3.32.04,4.98.03.82-.3.99-1.04.98-2.14-.04-4.28-.04-6.43,0-.8.02-1-.27-.99-1.02.03-4.47.01-8.94.01-13.41ZM15.43,175.35c1.92,0,3.84.02,5.76,0,1.52-.02,2.36-.58,2.67-1.81.16-.64.29-1.3.3-1.95.03-2.28-1.13-3.49-3.42-3.51-3.8-.04-7.61,0-11.41-.02-.67,0-.92.2-.9.88.04,1.73.05,3.47,0,5.2-.03.95.39,1.23,1.25,1.22,1.92-.02,3.84,0,5.76,0Z"/>
  <path d="M154.12,161.14c-1.07,1.28-2.09,2.51-3.14,3.73-2.83,3.28-5.66,6.57-8.53,9.82-.55.62-.38.85.15,1.38,2.1,2.12,4.15,4.29,6.13,6.51,1.84,2.06,3.72,4.07,5.65,6.04.28.28.51.6.76.9-.24.37-.57.24-.84.24-3.22.01-6.43,0-9.65.02-.67,0-1.12-.23-1.51-.74-2.08-2.72-4.43-5.2-6.65-7.8-.49-.57-.83-1.56-1.55-1.57-.73,0-1.12.98-1.62,1.54-2.34,2.65-4.64,5.33-6.92,8.03-.32.38-.64.53-1.13.52-3.25-.02-6.5,0-9.76-.01-.24,0-.58.12-.71-.14-.18-.35.2-.51.39-.7,4.06-4.36,8.12-8.72,12.19-13.07.37-.39.45-.7.07-1.14-2.9-3.33-5.78-6.67-8.68-10-.84-.97-1.7-1.93-2.56-2.89-.18-.2-.39-.41-.33-.66.09-.33.43-.21.67-.21,3.1,0,6.21,0,9.31-.01.54,0,.87.23,1.2.63,2.35,2.82,4.76,5.61,7.08,8.46.69.85,1.07.52,1.59-.1,2.36-2.82,4.74-5.63,7.1-8.45.25-.29.45-.54.89-.53,3.33.02,6.65.02,9.98.03.09,0,.19.08.41.17Z"/>
  <path d="M109.48,189.78c-1,0-2-.08-2.99.02-1.16.12-1.91-.27-2.31-1.35-.28-.77-.82-1.42-1.07-2.17-.44-1.3-1.22-1.66-2.56-1.64-4.69.08-9.38.05-14.07.01-.7,0-1.08.21-1.35.82-.52,1.18-1.26,2.24-1.67,3.47-.17.52-.45.85-1.11.84-2.62-.04-5.24-.04-7.87,0-.88,0-.92-.31-.57-.99,2.42-4.66,4.82-9.34,7.23-14,2.29-4.41,4.6-8.81,6.87-13.23.22-.43.45-.62.91-.62,3.25,0,6.5,0,9.75,0,.46,0,.75.15.97.57,1.51,2.91,3.04,5.82,4.56,8.72,1.34,2.56,2.7,5.12,4.04,7.69,1.92,3.69,3.81,7.4,5.72,11.09.31.6.12.77-.51.76-1.33-.02-2.66,0-3.99,0ZM93.74,178.46c1.33,0,2.66,0,3.99,0,1.3,0,1.42-.14.87-1.27-1.39-2.84-2.81-5.66-4.23-8.49-.11-.22-.18-.54-.48-.56-.33-.02-.37.31-.48.53-1.48,2.96-2.95,5.92-4.44,8.87-.33.66-.21.94.57.92,1.4-.03,2.8,0,4.21,0Z"/>
  <path d="M158.59,175.25c0-4.4.02-8.79-.02-13.19,0-.87.23-1.16,1.12-1.13,2.18.06,4.36.05,6.54,0,.79-.02,1,.25,1,1.02-.02,8.94-.02,17.88,0,26.83,0,.76-.22,1.03-1,1.02-2.22-.04-4.44-.04-6.65,0-.79.02-1.01-.25-1-1.02.03-4.51.01-9.02.01-13.52Z"/>
</svg>