<?xml version="1.0" encoding="UTF-8"?>
<svg id="Capa_4" xmlns="http://www.w3.org/2000/svg" viewBox="0 0 342.04 188.38">
  <path d="M141.33,27.38c-6.4,6.87-10.15,14.2-11.77,22.7-4.2,21.97,11.65,44.82,33.71,48.42,23.9,3.9,45.28-10.86,49.11-34.78,4.01-25-13.82-44.83-35.22-48.01-8.78-1.31-17.15.03-25.02,4.09-1.82.94-2.71.63-3.63-1.12-1.49-2.86-3.09-5.66-4.84-8.37-1.18-1.82-1.03-2.78,1.04-3.75,21.36-10,42.05-8.86,60.8,5.52,19.26,14.77,26.42,35.05,20.69,58.59-5.83,23.94-21.94,38.35-46.14,42.8-31.08,5.72-61.71-17.22-65.56-48.41-.86-6.97-.7-13.86.93-20.67.44-1.83,0-2.17-1.71-2.19-4.27-.07-4.33-.09-4.98,4.09-2.21,14.35-.36,28.04,6.77,40.84.72,1.29.7,1.95-.71,2.7-3.19,1.69-6.35,3.47-9.39,5.42-1.64,1.05-2.39.9-3.32-.86-5.21-9.81-8.33-20.22-9.11-31.28-.8-11.35.69-22.41,4.61-33.15.72-1.98,1.66-2.65,3.78-2.63,12.33.11,24.66.05,36.99.05.76,0,1.51,0,2.99,0Z"/>
  <path d="M170.98,89.8c-14.5,0-27.19-9.35-31.23-23.02-4.19-14.19,1.21-29.07,13.42-36.96,12.09-7.81,28.07-6.78,38.81,2.33,1.95,1.65,1.92,2.58.08,4.19-2.36,2.05-4.54,4.32-6.65,6.63-1.26,1.38-2.05,1.65-3.75.33-7.82-6.07-18.87-4.5-24.76,3.31-5.85,7.76-4.38,18.6,3.33,24.59,6.22,4.83,15.02,5,21.21.07,1.87-1.49,2.78-1.15,4.17.37,2.24,2.45,4.6,4.81,7.06,7.05,1.44,1.31,1.17,2.01-.18,3.16-6.02,5.16-13.39,7.95-21.52,7.95Z"/>
  <path d="M291.99,138.48c-4.93,5.82-9.86,11.64-14.79,17.45-3.23,3.8-5.78,3.77-9.06-.1-4.92-5.81-9.84-11.62-14.75-17.41-1.11.62-.66,1.5-.67,2.19-.04,5.18-.1,10.37,0,15.55.04,2.07-1.08,2.54-2.72,2.53-1.55-.01-2.86-.25-2.84-2.4.08-8.12.04-16.24.02-24.36,0-1.29.32-2.4,1.68-2.74,1.94-.49,3.65-.06,5.01,1.56,3.46,4.12,6.95,8.21,10.43,12.32,2.28,2.69,4.63,5.31,6.8,8.08,1.17,1.49,1.83,1.47,3.04.01,5.59-6.68,11.29-13.25,16.93-19.88.91-1.06,1.81-2.03,3.3-2.23,2.61-.35,3.98.66,4,3.3.06,7.83-.02,15.65.06,23.48.02,2.28-1.15,2.9-3.09,2.88-1.85-.03-2.82-.73-2.78-2.84.11-5.73.04-11.47.04-17.2-.21-.06-.42-.13-.63-.19Z"/>
  <path d="M223.17,128.86c4.09.24,8.22-.41,12.27.69,4.41,1.21,6.06,3.18,6.13,7.68.07,4.3.07,8.61,0,12.91-.07,4.52-1.71,6.49-6.11,7.71-3.37.93-6.8.63-10.21.65-3.91.02-7.84.1-11.73-.16-6.5-.43-8.83-3.06-8.84-9.49,0-3.81-.01-7.63,0-11.44.02-4.63,1.65-6.69,6.22-7.89,4.05-1.07,8.18-.42,12.27-.66ZM223.22,133.68s0,.01,0,.02c-3.03,0-6.06-.15-9.07.04-2.57.16-4.01,1.5-3.87,4.41.19,3.8.16,7.62,0,11.42-.1,2.49,1.18,3.81,3.31,4.01,6.33.6,12.69.6,19.01,0,2.16-.21,3.36-1.57,3.25-4.04-.16-3.8-.18-7.62,0-11.42.13-2.88-1.24-4.25-3.86-4.4-2.92-.16-5.85-.04-8.78-.04Z"/>
  <path d="M61.58,158.55c-3.99-.21-8.03.38-11.98-.65-4.53-1.18-6.19-3.27-6.22-7.89-.02-4.3-.03-8.61,0-12.91.03-4.14,1.68-6.32,5.65-7.44,1.12-.32,2.3-.6,3.45-.62,6.26-.06,12.53-.23,18.77.03,6.63.28,8.99,3.03,9,9.64,0,3.91.05,7.82-.01,11.74-.06,4-1.71,6.12-5.53,7.27-4.31,1.29-8.75.61-13.13.83ZM61.81,153.74s0-.03,0-.04c3.03,0,6.07.17,9.08-.05,2.41-.17,3.88-1.47,3.78-4.24-.14-3.81-.13-7.63,0-11.43.1-2.77-1.39-4.04-3.8-4.23-6.05-.47-12.11-.47-18.16,0-2.64.2-3.93,1.78-3.84,4.55.11,3.61.11,7.24,0,10.85-.09,2.97,1.43,4.41,4.16,4.57,2.92.17,5.86.04,8.79.04Z"/>
  <path d="M5.83,136.27c0,6.89-.05,13.05.03,19.2.03,2.08-.64,3.05-2.83,3.08-2.3.03-3.06-.92-3.03-3.17.1-7.62.03-15.25.04-22.87,0-3.53,2.12-4.82,5.31-3.03,1.85,1.04,3.45,2.54,5.11,3.9,6.42,5.27,12.82,10.57,19.23,15.85.58.48,1.18.93,2.31,1.82,0-5.21,0-9.84,0-14.46,0-1.47.04-2.93,0-4.4-.06-2.04.44-3.34,2.91-3.35,2.42,0,2.93,1.09,2.9,3.25-.09,7.52,0,15.05-.06,22.58,0,1.27.67,3.02-1.07,3.59-1.68.56-3.4.42-4.95-.88-4.42-3.7-8.92-7.31-13.39-10.95-3.99-3.25-7.98-6.5-12.5-10.18Z"/>
  <path d="M320.63,128.91c4.12.22,9.34-.53,14.46.63,4.99,1.13,6.76,3.08,6.8,7.34.07,7.59-.93,9.28-6.73,10.61-2.07.48-4.26.6-6.4.63-5.67.08-11.35.08-17.03,0-1.61-.02-2.32.38-2.2,2.11.13,1.95-.08,3.92.06,5.86.14,2.08-1.11,2.54-2.71,2.55-1.68.01-3-.33-2.97-2.61.1-8.12.08-16.24,0-24.35-.02-2.03.76-2.82,2.75-2.8,4.3.05,8.61.02,13.96.02ZM321.69,133.72c0-.07,0-.15,0-.22-1.47,0-2.93,0-4.4,0q-8.22,0-7.72,8.25c0,.1,0,.2,0,.29-.09,1.08.3,1.62,1.49,1.58,7.22-.22,14.46.49,21.66-.39,3.41-.42,3.34-.73,3.43-5.98.05-2.77-1.56-3.41-3.63-3.49-3.61-.14-7.22-.04-10.83-.04Z"/>
  <path d="M184.58,158.36c-4.21,0-8.43.26-12.61-.06-6.36-.49-8.56-3.13-8.56-9.48,0-3.91-.03-7.83,0-11.74.04-4,1.65-6.14,5.44-7.36,1.98-.63,4.02-.82,6.08-.82,7.05,0,14.09,0,21.14,0,1.52,0,3.02-.13,3.07,2.09.05,2.2-1.21,2.54-3.03,2.53-6.56-.05-13.11-.04-19.67,0-1.46,0-2.95.06-4.37.37-2.05.44-3.08,1.73-3,4,.13,3.81.16,7.63,0,11.44-.12,2.92,1.4,4.22,3.95,4.37,4,.23,8.01.2,12.02.23,3.72.03,7.44.03,11.16,0,1.65-.02,2.91.21,2.95,2.29.04,2.07-1.12,2.37-2.83,2.34-3.91-.07-7.83-.02-11.74-.02,0-.05,0-.11,0-.16Z"/>
  <path d="M138.86,128.94c2.01-.25,3.08.97,4.09,2.37,5.51,7.58,11.05,15.14,16.56,22.72.88,1.21,2.39,2.53.19,3.84-1.8,1.07-3.45,1-4.82-.94-3.83-5.42-7.73-10.8-11.62-16.17-1.43-1.97-3.01-5.55-4.35-5.47-2.18.14-3.21,3.48-4.68,5.49-3.86,5.28-7.61,10.64-11.35,16-.86,1.24-1.81,1.97-3.4,1.67-2.23-.43-2.95-1.88-1.63-3.73,5.73-8.02,11.54-15.99,17.29-24,.95-1.32,2.16-1.92,3.71-1.77Z"/>
  <path d="M104.97,152.97c5.35-7.53,10.43-14.68,15.52-21.82.5-.71,1-1.58,1.71-1.94,1.31-.66,2.72-.38,3.79.65,1.14,1.09.39,2.12-.32,3.1-5.66,7.83-11.29,15.68-16.99,23.48-2.2,3.01-5.5,2.95-7.75-.1-5.62-7.62-11.19-15.27-16.75-22.94-.81-1.12-2.27-2.4-.41-3.71,1.67-1.17,3.47-1.36,4.87.58,3.42,4.75,6.82,9.52,10.24,14.27,1.93,2.69,3.88,5.37,6.08,8.42Z"/>
  <path d="M74.72,182.21c0-2.31.03-4.61-.01-6.92-.02-1.1.08-1.88,1.52-1.88,1.4,0,1.59.72,1.57,1.85-.03,3.52.01,7.04-.03,10.57-.01.81.45,1.94-.66,2.31-1.07.36-2.04,0-2.84-.98-2.21-2.73-4.52-5.37-7.05-8.35-.78,2.66-.3,5.05-.4,7.39-.05,1.2-.11,2.1-1.7,2.05-1.49-.05-1.45-.98-1.45-1.99,0-3.52-.02-7.04.02-10.57,0-.81-.38-1.89.86-2.19,1-.23,1.88-.04,2.62.85,2.24,2.7,4.55,5.35,6.84,8.02.24-.06.47-.12.71-.18Z"/>
  <path d="M308.01,182.3c0-2.39.03-4.69-.01-6.98-.02-1.13.2-1.88,1.57-1.88,1.37,0,1.59.74,1.58,1.88-.03,3.62,0,7.24-.02,10.85,0,.74.28,1.71-.73,2-.98.28-1.89.06-2.62-.82-2.05-2.49-4.15-4.94-6.25-7.38-.29-.33-.51-.85-1.43-.68,0,2.35-.03,4.75.01,7.15.02,1.14-.22,1.83-1.6,1.84-1.49.01-1.49-.87-1.49-1.91.01-3.52-.02-7.04.03-10.56.01-.8-.46-1.91.73-2.27,1.11-.33,2.06.04,2.84,1,1.67,2.05,3.4,4.04,5.14,6.03.55.63.89,1.51,2.26,1.74Z"/>
  <path d="M229.87,188.33c-4.66.03-8.13-3.09-8.2-7.35-.06-4.42,3.47-7.76,8.17-7.72,4.61.04,8.02,3.25,8.05,7.54.02,4.29-3.38,7.49-8.02,7.52ZM229.74,185.58c2.97.01,5.12-2,5.11-4.8-.01-2.74-2.28-4.87-5.15-4.84-2.8.03-4.79,1.97-4.86,4.73-.07,2.92,1.9,4.9,4.9,4.91Z"/>
  <path d="M193.66,180.88c0-1.96.03-3.91-.01-5.87-.02-1.11.39-1.61,1.54-1.57,1.09.04,1.53.46,1.57,1.59.05,1.43-.7,3.25.42,4.2,1.16.99,3.02.18,4.55.38,1.91.25,2.4-.69,2.23-2.38-.09-.87-.01-1.76,0-2.64.02-1.15.88-1.11,1.66-1.14.78-.03,1.37.2,1.37,1.11,0,4.11,0,8.22,0,12.33,0,.98-.51,1.34-1.47,1.36-1.11.02-1.66-.4-1.57-1.54,0-.1,0-.2,0-.29-.32-4.3-1.56-5.17-5.88-4.35-1.01.19-1.31.67-1.31,1.56,0,.88-.02,1.76-.01,2.64,0,1.01.07,1.95-1.43,1.99-1.65.05-1.65-.97-1.64-2.11,0-1.76,0-3.52,0-5.28Z"/>
  <path d="M341.77,183.73c.87,3.21-1.17,4.01-3.57,4.46-4.1.78-8.08-.9-9.59-3.99-2.59-5.29,1.36-11.01,7.61-10.9,1.43.03,2.87.47,4.29.8,1.29.3,1.39,1.37,1.07,2.32-.43,1.29-1.32.28-1.92.1-1.33-.39-2.64-.69-4.03-.54-2,.21-3.59,1.11-4.25,3.07-.62,1.85-.51,3.66.97,5.17,1.57,1.6,3.5,1.49,5.47,1.21.65-.09,1.03-.45,1.08-1.15.06-.83-.19-1.34-1.1-1.3-.96.05-1.47-.32-1.41-1.35.08-1.37,1.11-1.05,1.94-1.15,2.51-.29,4.45,0,3.44,3.25Z"/>
  <path d="M143.94,180.76c0-.58,0-1.17,0-1.75,0-5.71,1.05-6.55,6.69-5.34,2.79.59,4.51,3.67,2.82,5.75-1.43,1.76-.85,2.78.13,4.17.5.71.98,1.48,1.25,2.3.24.71,1.53,1.56.36,2.18-.97.52-2.3.48-3.04-.85-.71-1.28-1.41-2.56-2.19-3.79-.54-.85-1.4-1.59-2.42-1.33-1.17.3-.39,1.51-.67,2.25-.48,1.31,1.34,3.85-1.5,3.79-2.71-.06-1.09-2.52-1.38-3.88-.24-1.12-.05-2.33-.05-3.5ZM146.91,177.84c-.15,1.17.18,1.84,1.53,1.77,1.28-.07,2.38-.37,2.44-1.84.07-1.55-1.07-1.77-2.34-1.86-1.53-.11-1.79.71-1.63,1.93Z"/>
  <path d="M257.13,173.56c.34.02,1.33-.05,2.27.15,2.31.48,4.24,3,2.99,4.73-2.34,3.25.04,5.16,1.11,7.58.28.64,1.59,1.5.23,2.11-.9.4-2.16.4-2.85-.77-.74-1.26-1.39-2.57-2.18-3.8-.59-.92-1.48-1.82-2.63-1.41-1.01.36-.3,1.56-.55,2.33-.41,1.26,1.17,3.57-1.34,3.67-2.97.13-1.37-2.42-1.52-3.72-.26-2.31-.1-4.67-.07-7.01.06-4.38-.63-3.79,4.53-3.86ZM255.58,177.93c-.21,1.06.11,1.74,1.47,1.68,1.27-.05,2.38-.32,2.47-1.8.09-1.55-1.02-1.81-2.29-1.9-1.49-.11-1.84.64-1.64,2.02Z"/>
  <path d="M114.74,187.94c1.88-4.55,3.67-9.06,5.63-13.49.65-1.47,3.05-1.48,3.75,0,1.92,4.05,3.66,8.19,5.47,12.3.24.55.5,1.24-.32,1.4-.91.18-2.21.49-2.52-.76-.96-3.9-4.02-2.4-6.4-2.64-1.1-.11-1.4.71-1.79,1.57-.9,2.01-.95,1.99-3.82,1.61ZM122.52,177.43c-1.18,1.67-2.38,3.02-1.6,4.72.27.59,2.2.6,2.64.02,1.23-1.65-.71-2.83-1.04-4.73Z"/>
  <path d="M93.04,180.64q0-7.79,7.7-7.2c.89.07,1.86-.05,1.85,1.27,0,1.35-1,1.2-1.87,1.21-.98.01-1.96.05-2.93,0-1.33-.07-1.63.64-1.63,1.81,0,1.17.28,1.88,1.62,1.8.97-.06,1.96,0,2.93,0,.84,0,1.55.06,1.52,1.23-.03,1.2-.83,1.11-1.62,1.12-.78.01-1.57.06-2.35,0-1.41-.11-2.18.25-2.13,1.91.05,1.54.66,2.1,2.13,2.01,1.07-.07,2.15,0,3.23,0,.82,0,1.26.34,1.24,1.23-.02.86-.43,1.24-1.26,1.23-2.35,0-4.7-.02-7.04,0-1.25.01-1.4-.77-1.39-1.74.01-1.96,0-3.91,0-5.87Z"/>
  <path d="M169.7,184.48c1.17.47,2.3,1,3.49,1.37,1,.31,2.04.1,2.54-.9.58-1.18-.36-1.78-1.21-2.28-1.01-.59-2.09-1.05-3.1-1.65-1.67-.99-2.51-2.47-2.12-4.43.4-2,1.9-2.85,3.74-3.21,3.47-.67,5.52.67,5.14,3.39-1.33-.22-2.49-1.13-3.92-.96-.79.1-1.63.14-1.83,1.1-.16.77.37,1.28,1,1.62,1.03.56,2.1,1.03,3.12,1.6,1.91,1.05,2.92,2.67,2.43,4.84-.53,2.32-2.28,3.25-4.56,3.36-3.64.17-5.07-.97-4.72-3.85Z"/>
  <path d="M22.8,173.45c1.66,0,3.32,0,4.98,0,.95,0,1.47.39,1.4,1.41-.07.92-.7,1.19-1.43,1.04-4.06-.88-3.88,1.7-3.72,4.41.1,1.75.08,3.52,0,5.27-.05,1.12.63,2.73-1.58,2.68-1.97-.05-1.42-1.51-1.45-2.55-.07-2.34-.16-4.7.02-7.03.18-2.23-.63-3.01-2.81-2.79-.93.09-2.35.51-2.29-1.31.05-1.63,1.34-1.07,2.19-1.12,1.56-.08,3.13-.02,4.69-.02,0,0,0,0,0,.01Z"/>
  <path d="M281.77,180.76c0,1.86-.01,3.72,0,5.58,0,1.05-.04,1.93-1.5,1.94-1.35,0-1.65-.64-1.64-1.81.03-3.81.04-7.63,0-11.44-.01-1.11.36-1.57,1.51-1.6,1.32-.03,1.69.55,1.65,1.76-.07,1.86-.02,3.72-.02,5.57Z"/>
  <path d="M2.98,181.18c0,1.75-.02,3.5,0,5.25.02,1.09-.12,1.88-1.54,1.84-1.23-.03-1.42-.66-1.42-1.67.02-3.79.02-7.58,0-11.37,0-.98.15-1.65,1.39-1.68,1.4-.04,1.59.68,1.57,1.81-.04,1.94-.01,3.89-.01,5.83Z"/>
</svg>